<svg width="32" height="33" viewBox="0 0 32 33" fill="none" xmlns="http://www.w3.org/2000/svg">
<path d="M10.24 2.42C5.6512 2.42 1.92 6.1512 1.92 10.74V22.26C1.92 26.8488 5.6512 30.58 10.24 30.58H21.76C26.3488 30.58 30.08 26.8488 30.08 22.26V10.74C30.08 6.1512 26.3488 2.42 21.76 2.42H10.24ZM23.68 7.54C24.384 7.54 24.96 8.116 24.96 8.82C24.96 9.524 24.384 10.1 23.68 10.1C22.976 10.1 22.4 9.524 22.4 8.82C22.4 8.116 22.976 7.54 23.68 7.54ZM16 9.46C19.8848 9.46 23.04 12.6152 23.04 16.5C23.04 20.3848 19.8848 23.54 16 23.54C12.1152 23.54 8.96 20.3848 8.96 16.5C8.96 12.6152 12.1152 9.46 16 9.46ZM16 10.74C12.8256 10.74 10.24 13.3256 10.24 16.5C10.24 19.6744 12.8256 22.26 16 22.26C19.1744 22.26 21.76 19.6744 21.76 16.5C21.76 13.3256 19.1744 10.74 16 10.74Z" fill="#FDF258"/>
</svg>
