<svg width="32" height="33" viewBox="0 0 32 33" fill="none" xmlns="http://www.w3.org/2000/svg">
<path d="M28.9895 13.35V24.9C28.9895 26.0598 28.0601 27 26.9134 27H4.07612C2.92948 27 2 26.0598 2 24.9V13.35C2 12.7702 2.46484 12.3 3.03806 12.3C3.18173 12.2681 3.33038 12.2681 3.47404 12.3L15.4948 20.7L27.5363 12.3C27.6733 12.271 27.8145 12.271 27.9515 12.3C28.5247 12.3 28.9895 12.7702 28.9895 13.35ZM2.51903 7.932L2.68512 8.1L15.4948 16.5L28.3459 8.1H28.4705C28.8434 7.89399 29.0502 7.47525 28.9895 7.05C28.9895 6.47019 28.5247 6 27.9515 6H3.03806C2.46484 6 2 6.47019 2 7.05C2.0054 7.41645 2.20304 7.75245 2.51903 7.932Z" fill="#FDF258"/>
</svg>
