<svg width="32" height="33" viewBox="0 0 32 33" fill="none" xmlns="http://www.w3.org/2000/svg">
<path d="M31.328 8.771C30.948 7.422 29.896 6.364 28.541 5.99C26.046 5.323 16.016 5.323 16.016 5.323C16.016 5.323 6.005 5.307 3.484 5.99C2.136 6.365 1.079 7.422 0.702999 8.771C0.229999 11.328 -0.00500051 13.916 0.00599949 16.516C0.000999485 19.099 0.234999 21.683 0.702999 24.224C1.079 25.573 2.136 26.631 3.484 27.011C5.979 27.678 16.016 27.678 16.016 27.678C16.016 27.678 26.021 27.678 28.541 27.011C29.896 26.631 30.948 25.574 31.328 24.224C31.787 21.683 32.011 19.099 31.995 16.516C32.011 13.916 31.792 11.328 31.328 8.771ZM12.812 21.303V11.708L21.161 16.516L12.812 21.303Z" fill="#FDF258"/>
</svg>
