<svg width="32" height="33" viewBox="0 0 32 33" fill="none" xmlns="http://www.w3.org/2000/svg">
<path d="M16 1C7.437 1 0.5 7.938 0.5 16.5C0.5 25.062 7.438 32 16 32C24.563 32 31.5 25.062 31.5 16.5C31.5 7.938 24.562 1 16 1ZM23.613 11.619L21.069 23.607C20.881 24.457 20.375 24.663 19.669 24.263L15.794 21.407L13.925 23.207C13.719 23.413 13.544 23.588 13.144 23.588L13.419 19.644L20.6 13.156C20.913 12.881 20.531 12.725 20.118 13L11.243 18.587L7.418 17.393C6.587 17.131 6.568 16.562 7.593 16.162L22.537 10.399C23.231 10.149 23.837 10.568 23.612 11.618L23.613 11.619Z" fill="#FDF258"/>
</svg>
