<svg width="32" height="33" viewBox="0 0 32 33" fill="none" xmlns="http://www.w3.org/2000/svg">
<path d="M28 3.16667H4C3.64638 3.16667 3.30724 3.30715 3.05719 3.5572C2.80714 3.80724 2.66667 4.14638 2.66667 4.50001V28.5C2.66667 28.8536 2.80714 29.1928 3.05719 29.4428C3.30724 29.6929 3.64638 29.8333 4 29.8333H28C28.3536 29.8333 28.6928 29.6929 28.9428 29.4428C29.1929 29.1928 29.3333 28.8536 29.3333 28.5V4.50001C29.3333 4.14638 29.1929 3.80724 28.9428 3.5572C28.6928 3.30715 28.3536 3.16667 28 3.16667ZM23.6253 14.8C23.48 14.8147 23.3333 14.8213 23.188 14.8227C22.3969 14.8237 21.6181 14.6276 20.9218 14.2521C20.2255 13.8766 19.6338 13.3336 19.2 12.672V19.996C19.2003 21.067 18.8829 22.1141 18.288 23.0047C17.6932 23.8954 16.8475 24.5896 15.8581 24.9996C14.8686 25.4096 13.7798 25.5169 12.7293 25.308C11.6788 25.0991 10.7139 24.5834 9.95659 23.8261C9.19925 23.0687 8.68353 22.1038 8.47464 21.0534C8.26576 20.0029 8.3731 18.9141 8.78309 17.9246C9.19308 16.9352 9.8873 16.0895 10.7779 15.4947C11.6686 14.8998 12.7156 14.5824 13.7867 14.5827C13.9 14.5827 14.0093 14.5933 14.1213 14.6V17.2667C13.7483 17.2215 13.37 17.2531 13.0096 17.3595C12.6492 17.4659 12.3143 17.6448 12.0257 17.8854C11.737 18.1259 11.5005 18.423 11.3309 18.7583C11.1612 19.0935 11.0619 19.46 11.039 19.835C11.0162 20.2101 11.0703 20.5859 11.198 20.9393C11.3257 21.2927 11.5243 21.6163 11.7816 21.8901C12.039 22.1639 12.3496 22.3822 12.6944 22.5316C13.0392 22.6809 13.4109 22.7582 13.7867 22.7587C14.5282 22.7721 15.2454 22.4939 15.784 21.984C16.3226 21.4741 16.6395 20.7732 16.6667 20.032L16.6933 7.59067H19.2453C19.3619 8.69928 19.8644 9.73164 20.6651 10.5072C21.4657 11.2828 22.5136 11.7522 23.6253 11.8333V14.8Z" fill="#FDF258"/>
</svg>
