<svg width="80" height="80" viewBox="0 0 80 80" fill="none" xmlns="http://www.w3.org/2000/svg">
<g clip-path="url(#clip0_908_40)">
<path d="M80 40C80 17.9086 62.0914 0 40 0C17.9086 0 0 17.9086 0 40C0 62.0914 17.9086 80 40 80C62.0914 80 80 62.0914 80 40Z" fill="#EFF8FC"/>
<path d="M52.1891 32.1044L50.6133 26.6881C50.4677 26.1874 50.0927 25.7865 49.6036 25.6081L46.892 24.6476L45.961 21.712C45.5586 20.4422 44.2165 19.7255 42.9353 20.0986L42.4935 20.2262C41.6131 20.4831 41.114 21.4142 41.3907 22.2896L41.6394 23.08C41.6279 23.0882 41.6147 23.0914 41.6052 23.0996L41.011 21.4044C40.728 20.5044 39.7462 20.0299 38.8642 20.3686L38.1769 20.632C36.8744 21.1311 36.4129 22.7773 36.9644 24.0569L39.6055 29.9837H39.558L36.858 23.6347C36.4801 22.7592 35.4344 22.3927 34.5901 22.8394L33.929 23.1029C32.7017 23.7525 32.2583 25.2907 32.9488 26.495L34.9779 29.9494L33.2057 26.9549C32.7295 26.1498 31.614 24.4829 30.8334 24.9999L30.0001 26.6666C28.3311 27.8742 29.5992 29.9837 29.5992 29.9837V35.7109C29.5992 38.3667 30.9623 41.0682 33.173 42.636L31.3992 64.9998H46.4537L45.5813 42.361L50.9453 36.9464C52.2118 35.6798 52.6882 33.8242 52.1891 32.1044Z" fill="#80D8FF"/>
<path d="M52.189 32.1044L50.6133 26.6881C50.4676 26.1874 50.0927 25.7865 49.6036 25.6081L46.8919 24.6476L45.961 21.712C45.5586 20.4422 44.2165 19.7255 42.9353 20.0986L42.4935 20.2262C41.6131 20.4831 41.114 21.4142 41.3906 22.2896L41.6394 23.08C41.6278 23.0882 41.6147 23.0914 41.6051 23.0996L41.0109 21.4044C40.7279 20.5044 39.7462 20.0299 38.8642 20.3686L38.1769 20.632C37.038 21.0689 36.5422 22.3813 36.804 23.5611C36.7271 23.4089 39.6856 30.4943 39.6856 30.4943L38.694 32.6346L38.5991 64.9998H46.4537L45.5813 42.361L50.9452 36.9464C52.2117 35.6798 52.6881 33.8242 52.189 32.1044Z" fill="#FFF176"/>
<path d="M42.5915 22.9623L49.5937 25.6132C50.0844 25.7932 50.4609 26.1859 50.6082 26.6931L52.1787 32.1095C52.6878 33.8276 52.2134 35.6767 50.9353 36.953L45.9626 41.9276L44.6368 42.8438L46.3029 33.3989L45.4715 29.3113L42.7551 27.675C41.2498 26.775 40.7423 24.8604 41.5769 23.3386C41.7242 23.0605 42.0024 22.9132 42.2954 22.9132C42.3953 22.9132 42.4936 22.9296 42.5915 22.9623Z" fill="#FFF176"/>
<path d="M34.6309 43.2645C34.6309 43.2645 37.83 43.9662 37.83 40.3809C37.8316 33.5935 45.4718 32.003 45.4718 32.003V29.3112L43.122 27.8958L43.1741 28.0643C43.4901 29.0707 42.9715 30.149 41.988 30.5303C41.034 30.9001 39.9817 30.4714 39.5138 29.5796H39.3092L39.5531 30.1425C39.9538 31.0703 39.5825 32.1519 38.694 32.633C37.7629 33.1386 36.5978 32.8081 36.0693 31.8901L35.7796 31.3861H35.6307C35.9956 32.2173 35.76 33.1992 35.0007 33.7326C34.1629 34.3217 33.0109 34.1564 32.3744 33.3546L29.9739 30.3257C29.6908 29.969 29.5353 29.5567 29.4764 29.1377C29.4977 29.6319 29.5991 29.9838 29.5991 29.9838V35.711C29.5991 38.3668 30.9622 41.0683 33.1729 42.636L34.6309 43.2645Z" fill="#65C7EA"/>
<path d="M34.2916 43.6952C34.185 43.6952 34.075 43.6749 33.9716 43.6299C30.5466 42.2018 28.3333 38.8801 28.3333 35.1684V28.6684C28.3333 28.2084 28.7066 27.8351 29.1666 27.8351C29.6266 27.8351 30 28.2084 30 28.6684V35.1684C30 38.2051 31.8116 40.9234 34.6133 42.0936C35.0383 42.2699 35.2383 42.7583 35.0616 43.1833C34.9266 43.5033 34.6183 43.6952 34.2916 43.6952Z" fill="#010101"/>
<path d="M33.6085 34.2083C32.7801 34.2083 31.9618 33.8416 31.4118 33.1483L28.9618 30.0633C28.3818 29.3349 28.1335 28.3883 28.2802 27.4666C28.4268 26.545 30.5068 24.3199 31.2852 23.8049L31.5801 23.61C31.9618 23.3583 32.4802 23.4599 32.7352 23.8449C32.9885 24.2283 32.8835 24.7466 32.5001 24.9999L32.2052 25.1966C31.8085 25.4583 30.0001 27.2616 29.9251 27.7283C29.8518 28.1949 29.9718 28.6566 30.2668 29.0266L32.7168 32.1116C33.0918 32.5833 33.7701 32.6783 34.2585 32.3349C34.7401 31.9966 34.8835 31.3333 34.5835 30.8266C34.3484 30.4299 34.4802 29.9199 34.8785 29.6849C35.2685 29.4533 35.7835 29.5816 36.0201 29.9783C36.7585 31.2283 36.4051 32.8616 35.2185 33.6983C34.7285 34.0416 34.1668 34.2083 33.6085 34.2083Z" fill="#010101"/>
<path d="M37.4966 33.0083C36.515 33.0083 35.555 32.4966 35.0366 31.5966L31.9533 26.2283C31.5 25.4366 31.3883 24.5199 31.6399 23.6433C31.8933 22.7666 34.895 21.1185 35.7016 20.6935L36.2066 20.4252C36.615 20.2101 37.1183 20.3635 37.3333 20.7718C37.55 21.1785 37.395 21.6835 36.9883 21.8985L36.4833 22.1652C36.0783 22.3785 33.37 23.6666 33.2433 24.1049C33.1166 24.5432 33.1716 25.0016 33.3999 25.3966L36.4833 30.7649C36.7933 31.3032 37.49 31.4999 38.0366 31.2049C38.565 30.9182 38.7833 30.2833 38.5449 29.7299C38.3633 29.3083 38.5566 28.8183 38.98 28.6349C39.4016 28.4532 39.8918 28.6466 40.0749 29.0699C40.6599 30.4199 40.1234 31.9683 38.8316 32.6699C38.4083 32.8983 37.9516 33.0083 37.4966 33.0083Z" fill="#010101"/>
<path d="M46.665 24.365C46.3116 24.365 45.9833 24.1383 45.8702 23.7833L45.0368 21.1617C44.7618 20.2933 43.8551 19.8167 42.9835 20.0667L42.5333 20.1983C42.3168 20.2617 42.1401 20.4067 42.0318 20.605C41.9236 20.8033 41.9033 21.0333 41.9717 21.2483L42.2248 22.0567C42.3634 22.495 42.1202 22.9633 41.6816 23.1017C41.2449 23.2433 40.7733 22.9967 40.6368 22.5567L40.3833 21.7484C40.1783 21.1017 40.2416 20.4167 40.5616 19.8183C40.88 19.22 41.4169 18.7867 42.0668 18.5967L42.5166 18.465C44.2734 17.9567 46.0716 18.9183 46.6248 20.6567L47.4583 23.2783C47.5984 23.7167 47.3552 24.185 46.9166 24.325C46.835 24.3533 46.7482 24.365 46.665 24.365Z" fill="#010101"/>
<path d="M46.0016 57.1984C45.555 57.1984 45.1869 56.8465 45.1686 56.3964L44.6118 41.9733C44.5934 41.5132 44.9532 41.1267 45.4118 41.108C45.4233 41.108 45.4352 41.108 45.4452 41.108C45.8918 41.108 46.2599 41.4599 46.2782 41.91L46.835 56.3331C46.8533 56.7932 46.4935 57.1801 46.035 57.1984C46.0219 57.1984 46.01 57.1984 46.0016 57.1984Z" fill="#010101"/>
<path d="M46.3335 64.9997C45.8937 64.9997 45.5272 64.6567 45.5021 64.2117L45.2537 59.6847C45.2271 59.2266 45.5805 58.8334 46.0402 58.8083C46.5071 58.7749 46.8935 59.1367 46.917 59.5948L47.1654 64.1217C47.192 64.5798 46.8386 64.9731 46.3785 64.9981C46.3638 64.9997 46.3487 64.9997 46.3335 64.9997Z" fill="#010101"/>
<path d="M31.002 64.9998C30.9753 64.9998 30.952 64.9998 30.9253 64.9966C30.4686 64.9564 30.1287 64.55 30.1703 64.0931L30.7653 57.4264C30.8053 56.9667 31.217 56.6165 31.6703 56.6698C32.127 56.71 32.467 57.1168 32.4253 57.5733L31.8303 64.24C31.7903 64.6734 31.427 64.9998 31.002 64.9998Z" fill="#010101"/>
<path d="M31.8985 55.2084C31.8751 55.2084 31.8551 55.2084 31.8335 55.2068C31.3751 55.1718 31.0318 54.7718 31.0651 54.3117L31.9751 42.3702C32.0101 41.9101 32.4634 41.575 32.8701 41.6032C33.3285 41.6382 33.6718 42.0383 33.6384 42.4983L32.7285 54.4398C32.6934 54.8749 32.3285 55.2084 31.8985 55.2084Z" fill="#010101"/>
<path d="M44.0971 43.4714C43.7254 43.4714 43.3871 43.2215 43.2904 42.8465C43.1773 42.4016 43.444 41.9466 43.889 41.8316C44.2838 41.7301 44.9206 41.2298 45.2454 40.9082L50.3105 35.8433C51.3907 34.7633 51.797 33.1883 51.3672 31.7349L49.7656 26.2133C49.692 25.9583 49.5021 25.7583 49.2454 25.6633L42.1055 22.9599C41.4555 24.1316 41.8504 25.5816 42.9938 26.2649L45.762 27.9333C46.012 28.0833 46.1656 28.3549 46.1656 28.6466V31.3883C46.1656 31.8483 45.7923 32.2216 45.3322 32.2216C44.8721 32.2216 44.4987 31.8483 44.4987 31.3883V29.1216L42.1353 27.6983C40.2221 26.5533 39.5605 24.1233 40.6356 22.1666C41.0006 21.4766 41.8639 21.1283 42.6623 21.3933L49.8273 24.1049C50.5787 24.3816 51.1439 24.9816 51.3672 25.7516L52.9672 31.2683C53.567 33.3033 53.0022 35.5099 51.489 37.0233L46.4223 42.0899C46.3089 42.2034 45.2939 43.1916 44.3037 43.4467C44.2356 43.4651 44.1656 43.4714 44.0971 43.4714Z" fill="#010101"/>
<path d="M37.5502 40.7582C37.0952 40.7582 36.7219 40.3917 36.7169 39.9332C36.6602 34.69 41.0018 31.2967 45.3218 30.6534C45.7668 30.5917 46.2002 30.9 46.2671 31.355C46.3351 31.81 46.0219 32.235 45.5654 32.3017C42.072 32.8217 38.3335 35.4267 38.3819 39.9148C38.3869 40.3749 38.0169 40.7519 37.5585 40.7566C37.5569 40.7582 37.5536 40.7582 37.5502 40.7582Z" fill="#010101"/>
<path d="M41.0981 31.1033C39.9749 31.1033 38.8982 30.4467 38.4282 29.365L35.8499 23.4183C35.4849 22.5767 35.4799 21.6467 35.8349 20.8017C36.1899 19.955 40.1898 19.3083 41.0483 18.98L41.7297 18.7183C42.1564 18.555 42.6416 18.7683 42.8064 19.1983C42.9715 19.6283 42.7566 20.11 42.3264 20.275L41.645 20.5367C41.2167 20.7017 37.5499 21.0233 37.3732 21.4467C37.1965 21.87 37.1965 22.3333 37.3799 22.7533L39.9598 28.7017C40.2217 29.3083 40.9317 29.6017 41.5482 29.3483C42.1397 29.1066 42.445 28.4633 42.2583 27.8516C42.1214 27.4116 42.3681 26.9466 42.8083 26.81C43.2565 26.6733 43.7166 26.9217 43.8499 27.3617C44.2949 28.805 43.5749 30.3233 42.1767 30.8933C41.8249 31.0367 41.4583 31.1033 41.0981 31.1033Z" fill="#010101"/>
</g>
<defs>
<clipPath id="clip0_908_40">
<rect width="80" height="80" fill="white"/>
</clipPath>
</defs>
</svg>
