<?xml version="1.0" encoding="utf-8"?><svg xmlns="http://www.w3.org/2000/svg" xmlns:xlink="http://www.w3.org/1999/xlink"><symbol viewBox="0 0 48 48" id="arrow" xmlns="http://www.w3.org/2000/svg"><path d="M15.4 43.2501L13.1 40.9001L30.1 23.9001L13.1 6.9501L15.4 4.6001L34.7 23.9001L15.4 43.2501Z"/></symbol><symbol viewBox="0 0 16 10" id="expand" xmlns="http://www.w3.org/2000/svg"><path d="M7.99998 9.23449L0 1.23451L0.696738 0.5L8 7.50004L15.3032 0.500039L16 1.23451L7.99998 9.23449Z"/></symbol><symbol viewBox="0 0 32 33" id="facebook01" xmlns="http://www.w3.org/2000/svg"><path d="M16 3.5C8.821 3.5 3 9.321 3 16.5C3 23.0175 7.8015 28.3995 14.0565 29.3395V19.945H10.84V16.528H14.0565V14.254C14.0565 10.4895 15.8905 8.8375 19.0195 8.8375C20.5175 8.8375 21.311 8.949 21.6855 8.999V11.9815H19.5515C18.2235 11.9815 17.7595 13.2415 17.7595 14.6605V16.528H21.652L21.1245 19.945H17.7595V29.3665C24.1045 28.5065 29 23.0815 29 16.5C29 9.321 23.1795 3.5 16 3.5Z"/></symbol><symbol viewBox="0 0 32 33" id="instagram01" xmlns="http://www.w3.org/2000/svg"><path d="M10.24 2.42C5.6512 2.42 1.92 6.1512 1.92 10.74V22.26C1.92 26.8488 5.6512 30.58 10.24 30.58H21.76C26.3488 30.58 30.08 26.8488 30.08 22.26V10.74C30.08 6.1512 26.3488 2.42 21.76 2.42H10.24ZM23.68 7.54C24.384 7.54 24.96 8.116 24.96 8.82C24.96 9.524 24.384 10.1 23.68 10.1C22.976 10.1 22.4 9.524 22.4 8.82C22.4 8.116 22.976 7.54 23.68 7.54ZM16 9.46C19.8848 9.46 23.04 12.6152 23.04 16.5C23.04 20.3848 19.8848 23.54 16 23.54C12.1152 23.54 8.96 20.3848 8.96 16.5C8.96 12.6152 12.1152 9.46 16 9.46ZM16 10.74C12.8256 10.74 10.24 13.3256 10.24 16.5C10.24 19.6744 12.8256 22.26 16 22.26C19.1744 22.26 21.76 19.6744 21.76 16.5C21.76 13.3256 19.1744 10.74 16 10.74Z"/></symbol><symbol viewBox="0 0 32 33" id="post01" xmlns="http://www.w3.org/2000/svg"><path d="M28.9895 13.35V24.9C28.9895 26.0598 28.0601 27 26.9134 27H4.07612C2.92948 27 2 26.0598 2 24.9V13.35C2 12.7702 2.46484 12.3 3.03806 12.3C3.18173 12.2681 3.33038 12.2681 3.47404 12.3L15.4948 20.7L27.5363 12.3C27.6733 12.271 27.8145 12.271 27.9515 12.3C28.5247 12.3 28.9895 12.7702 28.9895 13.35ZM2.51903 7.932L2.68512 8.1L15.4948 16.5L28.3459 8.1H28.4705C28.8434 7.89399 29.0502 7.47525 28.9895 7.05C28.9895 6.47019 28.5247 6 27.9515 6H3.03806C2.46484 6 2 6.47019 2 7.05C2.0054 7.41645 2.20304 7.75245 2.51903 7.932Z"/></symbol><symbol viewBox="0 0 32 33" id="social01" xmlns="http://www.w3.org/2000/svg"><path d="M16 3.5C8.821 3.5 3 9.321 3 16.5C3 23.0175 7.8015 28.3995 14.0565 29.3395V19.945H10.84V16.528H14.0565V14.254C14.0565 10.4895 15.8905 8.8375 19.0195 8.8375C20.5175 8.8375 21.311 8.949 21.6855 8.999V11.9815H19.5515C18.2235 11.9815 17.7595 13.2415 17.7595 14.6605V16.528H21.652L21.1245 19.945H17.7595V29.3665C24.1045 28.5065 29 23.0815 29 16.5C29 9.321 23.1795 3.5 16 3.5Z"/></symbol><symbol viewBox="0 0 32 33" id="social02" xmlns="http://www.w3.org/2000/svg"><path d="M10.24 2.42C5.6512 2.42 1.92 6.1512 1.92 10.74V22.26C1.92 26.8488 5.6512 30.58 10.24 30.58H21.76C26.3488 30.58 30.08 26.8488 30.08 22.26V10.74C30.08 6.1512 26.3488 2.42 21.76 2.42H10.24ZM23.68 7.54C24.384 7.54 24.96 8.116 24.96 8.82C24.96 9.524 24.384 10.1 23.68 10.1C22.976 10.1 22.4 9.524 22.4 8.82C22.4 8.116 22.976 7.54 23.68 7.54ZM16 9.46C19.8848 9.46 23.04 12.6152 23.04 16.5C23.04 20.3848 19.8848 23.54 16 23.54C12.1152 23.54 8.96 20.3848 8.96 16.5C8.96 12.6152 12.1152 9.46 16 9.46ZM16 10.74C12.8256 10.74 10.24 13.3256 10.24 16.5C10.24 19.6744 12.8256 22.26 16 22.26C19.1744 22.26 21.76 19.6744 21.76 16.5C21.76 13.3256 19.1744 10.74 16 10.74Z"/></symbol><symbol viewBox="0 0 32 33" id="social03" xmlns="http://www.w3.org/2000/svg"><path d="M16 1C7.437 1 0.5 7.938 0.5 16.5C0.5 25.062 7.438 32 16 32C24.563 32 31.5 25.062 31.5 16.5C31.5 7.938 24.562 1 16 1ZM23.613 11.619L21.069 23.607C20.881 24.457 20.375 24.663 19.669 24.263L15.794 21.407L13.925 23.207C13.719 23.413 13.544 23.588 13.144 23.588L13.419 19.644L20.6 13.156C20.913 12.881 20.531 12.725 20.118 13L11.243 18.587L7.418 17.393C6.587 17.131 6.568 16.562 7.593 16.162L22.537 10.399C23.231 10.149 23.837 10.568 23.612 11.618L23.613 11.619Z"/></symbol><symbol viewBox="0 0 32 33" id="social04" xmlns="http://www.w3.org/2000/svg"><path d="M31.328 8.771C30.948 7.422 29.896 6.364 28.541 5.99C26.046 5.323 16.016 5.323 16.016 5.323C16.016 5.323 6.005 5.307 3.484 5.99C2.136 6.365 1.079 7.422 0.702999 8.771C0.229999 11.328 -0.00500051 13.916 0.00599949 16.516C0.000999485 19.099 0.234999 21.683 0.702999 24.224C1.079 25.573 2.136 26.631 3.484 27.011C5.979 27.678 16.016 27.678 16.016 27.678C16.016 27.678 26.021 27.678 28.541 27.011C29.896 26.631 30.948 25.574 31.328 24.224C31.787 21.683 32.011 19.099 31.995 16.516C32.011 13.916 31.792 11.328 31.328 8.771ZM12.812 21.303V11.708L21.161 16.516L12.812 21.303Z"/></symbol><symbol viewBox="0 0 32 33" id="social05" xmlns="http://www.w3.org/2000/svg"><path d="M28 3.16667H4C3.64638 3.16667 3.30724 3.30715 3.05719 3.5572C2.80714 3.80724 2.66667 4.14638 2.66667 4.50001V28.5C2.66667 28.8536 2.80714 29.1928 3.05719 29.4428C3.30724 29.6929 3.64638 29.8333 4 29.8333H28C28.3536 29.8333 28.6928 29.6929 28.9428 29.4428C29.1929 29.1928 29.3333 28.8536 29.3333 28.5V4.50001C29.3333 4.14638 29.1929 3.80724 28.9428 3.5572C28.6928 3.30715 28.3536 3.16667 28 3.16667ZM23.6253 14.8C23.48 14.8147 23.3333 14.8213 23.188 14.8227C22.3969 14.8237 21.6181 14.6276 20.9218 14.2521C20.2255 13.8766 19.6338 13.3336 19.2 12.672V19.996C19.2003 21.067 18.8829 22.1141 18.288 23.0047C17.6932 23.8954 16.8475 24.5896 15.8581 24.9996C14.8686 25.4096 13.7798 25.5169 12.7293 25.308C11.6788 25.0991 10.7139 24.5834 9.95659 23.8261C9.19925 23.0687 8.68353 22.1038 8.47464 21.0534C8.26576 20.0029 8.3731 18.9141 8.78309 17.9246C9.19308 16.9352 9.8873 16.0895 10.7779 15.4947C11.6686 14.8998 12.7156 14.5824 13.7867 14.5827C13.9 14.5827 14.0093 14.5933 14.1213 14.6V17.2667C13.7483 17.2215 13.37 17.2531 13.0096 17.3595C12.6492 17.4659 12.3143 17.6448 12.0257 17.8854C11.737 18.1259 11.5005 18.423 11.3309 18.7583C11.1612 19.0935 11.0619 19.46 11.039 19.835C11.0162 20.2101 11.0703 20.5859 11.198 20.9393C11.3257 21.2927 11.5243 21.6163 11.7816 21.8901C12.039 22.1639 12.3496 22.3822 12.6944 22.5316C13.0392 22.6809 13.4109 22.7582 13.7867 22.7587C14.5282 22.7721 15.2454 22.4939 15.784 21.984C16.3226 21.4741 16.6395 20.7732 16.6667 20.032L16.6933 7.59067H19.2453C19.3619 8.69928 19.8644 9.73164 20.6651 10.5072C21.4657 11.2828 22.5136 11.7522 23.6253 11.8333V14.8Z"/></symbol><symbol viewBox="0 0 32 33" id="social06" xmlns="http://www.w3.org/2000/svg"><path d="M28.9895 13.35V24.9C28.9895 26.0598 28.0601 27 26.9134 27H4.07612C2.92948 27 2 26.0598 2 24.9V13.35C2 12.7702 2.46484 12.3 3.03806 12.3C3.18173 12.2681 3.33038 12.2681 3.47404 12.3L15.4948 20.7L27.5363 12.3C27.6733 12.271 27.8145 12.271 27.9515 12.3C28.5247 12.3 28.9895 12.7702 28.9895 13.35ZM2.51903 7.932L2.68512 8.1L15.4948 16.5L28.3459 8.1H28.4705C28.8434 7.89399 29.0502 7.47525 28.9895 7.05C28.9895 6.47019 28.5247 6 27.9515 6H3.03806C2.46484 6 2 6.47019 2 7.05C2.0054 7.41645 2.20304 7.75245 2.51903 7.932Z"/></symbol><symbol viewBox="0 0 32 33" id="telegram01" xmlns="http://www.w3.org/2000/svg"><path d="M16 1C7.437 1 0.5 7.938 0.5 16.5C0.5 25.062 7.438 32 16 32C24.563 32 31.5 25.062 31.5 16.5C31.5 7.938 24.562 1 16 1ZM23.613 11.619L21.069 23.607C20.881 24.457 20.375 24.663 19.669 24.263L15.794 21.407L13.925 23.207C13.719 23.413 13.544 23.588 13.144 23.588L13.419 19.644L20.6 13.156C20.913 12.881 20.531 12.725 20.118 13L11.243 18.587L7.418 17.393C6.587 17.131 6.568 16.562 7.593 16.162L22.537 10.399C23.231 10.149 23.837 10.568 23.612 11.618L23.613 11.619Z"/></symbol><symbol viewBox="0 0 32 33" id="tiktok-sq01" xmlns="http://www.w3.org/2000/svg"><path d="M28 3.16667H4C3.64638 3.16667 3.30724 3.30715 3.05719 3.5572C2.80714 3.80724 2.66667 4.14638 2.66667 4.50001V28.5C2.66667 28.8536 2.80714 29.1928 3.05719 29.4428C3.30724 29.6929 3.64638 29.8333 4 29.8333H28C28.3536 29.8333 28.6928 29.6929 28.9428 29.4428C29.1929 29.1928 29.3333 28.8536 29.3333 28.5V4.50001C29.3333 4.14638 29.1929 3.80724 28.9428 3.5572C28.6928 3.30715 28.3536 3.16667 28 3.16667ZM23.6253 14.8C23.48 14.8147 23.3333 14.8213 23.188 14.8227C22.3969 14.8237 21.6181 14.6276 20.9218 14.2521C20.2255 13.8766 19.6338 13.3336 19.2 12.672V19.996C19.2003 21.067 18.8829 22.1141 18.288 23.0047C17.6932 23.8954 16.8475 24.5896 15.8581 24.9996C14.8686 25.4096 13.7798 25.5169 12.7293 25.308C11.6788 25.0991 10.7139 24.5834 9.95659 23.8261C9.19925 23.0687 8.68353 22.1038 8.47464 21.0534C8.26576 20.0029 8.3731 18.9141 8.78309 17.9246C9.19308 16.9352 9.8873 16.0895 10.7779 15.4947C11.6686 14.8998 12.7156 14.5824 13.7867 14.5827C13.9 14.5827 14.0093 14.5933 14.1213 14.6V17.2667C13.7483 17.2215 13.37 17.2531 13.0096 17.3595C12.6492 17.4659 12.3143 17.6448 12.0257 17.8854C11.737 18.1259 11.5005 18.423 11.3309 18.7583C11.1612 19.0935 11.0619 19.46 11.039 19.835C11.0162 20.2101 11.0703 20.5859 11.198 20.9393C11.3257 21.2927 11.5243 21.6163 11.7816 21.8901C12.039 22.1639 12.3496 22.3822 12.6944 22.5316C13.0392 22.6809 13.4109 22.7582 13.7867 22.7587C14.5282 22.7721 15.2454 22.4939 15.784 21.984C16.3226 21.4741 16.6395 20.7732 16.6667 20.032L16.6933 7.59067H19.2453C19.3619 8.69928 19.8644 9.73164 20.6651 10.5072C21.4657 11.2828 22.5136 11.7522 23.6253 11.8333V14.8Z"/></symbol><symbol viewBox="0 0 16 20" id="vector" xmlns="http://www.w3.org/2000/svg"><path d="M8 9.75C8.48333 9.75 8.896 9.57933 9.238 9.238C9.57933 8.896 9.75 8.48333 9.75 8C9.75 7.51667 9.57933 7.104 9.238 6.762C8.896 6.42067 8.48333 6.25 8 6.25C7.51667 6.25 7.104 6.42067 6.762 6.762C6.42067 7.104 6.25 7.51667 6.25 8C6.25 8.48333 6.42067 8.896 6.762 9.238C7.104 9.57933 7.51667 9.75 8 9.75ZM8 19.8C5.4 17.5333 3.45833 15.4333 2.175 13.5C0.891667 11.5667 0.25 9.8 0.25 8.2C0.25 5.78333 1.02933 3.854 2.588 2.412C4.146 0.970667 5.95 0.25 8 0.25C10.05 0.25 11.8543 0.970667 13.413 2.412C14.971 3.854 15.75 5.78333 15.75 8.2C15.75 9.8 15.1083 11.5667 13.825 13.5C12.5417 15.4333 10.6 17.5333 8 19.8Z"/></symbol><symbol viewBox="0 0 32 33" id="youtube01" xmlns="http://www.w3.org/2000/svg"><path d="M31.328 8.771C30.948 7.422 29.896 6.364 28.541 5.99C26.046 5.323 16.016 5.323 16.016 5.323C16.016 5.323 6.005 5.307 3.484 5.99C2.136 6.365 1.079 7.422 0.702999 8.771C0.229999 11.328 -0.00500051 13.916 0.00599949 16.516C0.000999485 19.099 0.234999 21.683 0.702999 24.224C1.079 25.573 2.136 26.631 3.484 27.011C5.979 27.678 16.016 27.678 16.016 27.678C16.016 27.678 26.021 27.678 28.541 27.011C29.896 26.631 30.948 25.574 31.328 24.224C31.787 21.683 32.011 19.099 31.995 16.516C32.011 13.916 31.792 11.328 31.328 8.771ZM12.812 21.303V11.708L21.161 16.516L12.812 21.303Z"/></symbol></svg>