<?xml version="1.0" encoding="utf-8"?><svg viewBox="0 0 48 48" xmlns="http://www.w3.org/2000/svg" xmlns:xlink="http://www.w3.org/1999/xlink"><style>:root>svg{display:none}:root>svg:target{display:block}</style><svg fill="none" viewBox="0 0 48 48" id="arrow" xmlns="http://www.w3.org/2000/svg"><path d="m15.4 43.25-2.3-2.35 17-17-17-16.95 2.3-2.35 19.3 19.3-19.3 19.35Z" fill="#282828"/></svg><svg fill="none" viewBox="0 0 16 10" id="expand" xmlns="http://www.w3.org/2000/svg"><path d="m8 9.234-8-8L.697.5 8 7.5l7.303-7 .697.735-8 8Z" fill="#282828"/></svg><svg fill="none" viewBox="0 0 32 33" id="facebook01" xmlns="http://www.w3.org/2000/svg"><path d="M16 3.5c-7.179 0-13 5.821-13 13 0 6.517 4.801 11.9 11.056 12.84v-9.395H10.84v-3.417h3.216v-2.274c0-3.764 1.835-5.416 4.964-5.416 1.497 0 2.291.111 2.666.161v2.982h-2.134c-1.328 0-1.793 1.26-1.793 2.68v1.867h3.893l-.527 3.417h-3.366v9.421C24.105 28.506 29 23.081 29 16.5c0-7.179-5.82-13-13-13Z" fill="#FDF258"/></svg><svg fill="none" viewBox="0 0 32 33" id="instagram01" xmlns="http://www.w3.org/2000/svg"><path d="M10.24 2.42c-4.589 0-8.32 3.731-8.32 8.32v11.52c0 4.589 3.731 8.32 8.32 8.32h11.52c4.589 0 8.32-3.731 8.32-8.32V10.74c0-4.589-3.731-8.32-8.32-8.32H10.24Zm13.44 5.12c.704 0 1.28.576 1.28 1.28 0 .704-.576 1.28-1.28 1.28-.704 0-1.28-.576-1.28-1.28 0-.704.576-1.28 1.28-1.28ZM16 9.46a7.044 7.044 0 0 1 7.04 7.04A7.044 7.044 0 0 1 16 23.54a7.044 7.044 0 0 1-7.04-7.04A7.044 7.044 0 0 1 16 9.46Zm0 1.28a5.769 5.769 0 0 0-5.76 5.76A5.769 5.769 0 0 0 16 22.26a5.769 5.769 0 0 0 5.76-5.76A5.769 5.769 0 0 0 16 10.74Z" fill="#FDF258"/></svg><svg fill="none" viewBox="0 0 32 33" id="post01" xmlns="http://www.w3.org/2000/svg"><path d="M28.99 13.35V24.9c0 1.16-.93 2.1-2.077 2.1H4.076C2.93 27 2 26.06 2 24.9V13.35c0-.58.465-1.05 1.038-1.05.144-.032.292-.032.436 0l12.02 8.4 12.042-8.4c.137-.029.278-.029.415 0 .574 0 1.038.47 1.038 1.05ZM2.518 7.932l.166.168 12.81 8.4 12.85-8.4h.126c.372-.206.58-.625.518-1.05 0-.58-.464-1.05-1.038-1.05H3.038C2.465 6 2 6.47 2 7.05c.005.366.203.702.519.882Z" fill="#FDF258"/></svg><svg fill="none" viewBox="0 0 32 33" id="social01" xmlns="http://www.w3.org/2000/svg"><path d="M16 3.5c-7.179 0-13 5.821-13 13 0 6.517 4.801 11.9 11.056 12.84v-9.395H10.84v-3.417h3.216v-2.274c0-3.764 1.835-5.416 4.964-5.416 1.497 0 2.291.111 2.666.161v2.982h-2.134c-1.328 0-1.793 1.26-1.793 2.68v1.867h3.893l-.527 3.417h-3.366v9.421C24.105 28.506 29 23.081 29 16.5c0-7.179-5.82-13-13-13Z" fill="#FDF258"/></svg><svg fill="none" viewBox="0 0 32 33" id="social02" xmlns="http://www.w3.org/2000/svg"><path d="M10.24 2.42c-4.589 0-8.32 3.731-8.32 8.32v11.52c0 4.589 3.731 8.32 8.32 8.32h11.52c4.589 0 8.32-3.731 8.32-8.32V10.74c0-4.589-3.731-8.32-8.32-8.32H10.24Zm13.44 5.12c.704 0 1.28.576 1.28 1.28 0 .704-.576 1.28-1.28 1.28-.704 0-1.28-.576-1.28-1.28 0-.704.576-1.28 1.28-1.28ZM16 9.46a7.044 7.044 0 0 1 7.04 7.04A7.044 7.044 0 0 1 16 23.54a7.044 7.044 0 0 1-7.04-7.04A7.044 7.044 0 0 1 16 9.46Zm0 1.28a5.769 5.769 0 0 0-5.76 5.76A5.769 5.769 0 0 0 16 22.26a5.769 5.769 0 0 0 5.76-5.76A5.769 5.769 0 0 0 16 10.74Z" fill="#FDF258"/></svg><svg fill="none" viewBox="0 0 32 33" id="social03" xmlns="http://www.w3.org/2000/svg"><path d="M16 1C7.437 1 .5 7.938.5 16.5.5 25.062 7.438 32 16 32c8.563 0 15.5-6.938 15.5-15.5C31.5 7.938 24.562 1 16 1Zm7.613 10.619-2.544 11.988c-.188.85-.694 1.056-1.4.656l-3.875-2.856-1.869 1.8c-.206.206-.381.381-.781.381l.275-3.944 7.181-6.488c.313-.275-.069-.431-.482-.156l-8.875 5.587-3.825-1.194c-.831-.262-.85-.831.175-1.231l14.944-5.763c.694-.25 1.3.169 1.075 1.219l.001.001Z" fill="#FDF258"/></svg><svg fill="none" viewBox="0 0 32 33" id="social04" xmlns="http://www.w3.org/2000/svg"><path d="M31.328 8.771a4.006 4.006 0 0 0-2.787-2.781c-2.495-.667-12.525-.667-12.525-.667S6.005 5.307 3.484 5.99A4.005 4.005 0 0 0 .703 8.771a41.574 41.574 0 0 0-.697 7.745 42.136 42.136 0 0 0 .697 7.708 4.022 4.022 0 0 0 2.781 2.787c2.495.667 12.532.667 12.532.667s10.005 0 12.525-.667a4.023 4.023 0 0 0 2.787-2.787c.459-2.541.683-5.125.667-7.708.016-2.6-.203-5.188-.667-7.745ZM12.812 21.303v-9.595l8.349 4.808-8.349 4.787Z" fill="#FDF258"/></svg><svg fill="none" viewBox="0 0 32 33" id="social05" xmlns="http://www.w3.org/2000/svg"><path d="M28 3.167H4A1.333 1.333 0 0 0 2.667 4.5v24A1.333 1.333 0 0 0 4 29.833h24a1.333 1.333 0 0 0 1.333-1.333v-24A1.333 1.333 0 0 0 28 3.167ZM23.625 14.8a4.762 4.762 0 0 1-4.425-2.128v7.324a5.414 5.414 0 1 1-5.413-5.413c.113 0 .222.01.334.017v2.667a2.755 2.755 0 1 0-.334 5.492 2.83 2.83 0 0 0 2.88-2.727l.026-12.441h2.552a4.752 4.752 0 0 0 4.38 4.242V14.8Z" fill="#FDF258"/></svg><svg fill="none" viewBox="0 0 32 33" id="social06" xmlns="http://www.w3.org/2000/svg"><path d="M28.99 13.35V24.9c0 1.16-.93 2.1-2.077 2.1H4.076C2.93 27 2 26.06 2 24.9V13.35c0-.58.465-1.05 1.038-1.05.144-.032.292-.032.436 0l12.02 8.4 12.042-8.4c.137-.029.278-.029.415 0 .574 0 1.038.47 1.038 1.05ZM2.518 7.932l.166.168 12.81 8.4 12.85-8.4h.126c.372-.206.58-.625.518-1.05 0-.58-.464-1.05-1.038-1.05H3.038C2.465 6 2 6.47 2 7.05c.005.366.203.702.519.882Z" fill="#FDF258"/></svg><svg fill="none" viewBox="0 0 32 33" id="telegram01" xmlns="http://www.w3.org/2000/svg"><path d="M16 1C7.437 1 .5 7.938.5 16.5.5 25.062 7.438 32 16 32c8.563 0 15.5-6.938 15.5-15.5C31.5 7.938 24.562 1 16 1Zm7.613 10.619-2.544 11.988c-.188.85-.694 1.056-1.4.656l-3.875-2.856-1.869 1.8c-.206.206-.381.381-.781.381l.275-3.944 7.181-6.488c.313-.275-.069-.431-.482-.156l-8.875 5.587-3.825-1.194c-.831-.262-.85-.831.175-1.231l14.944-5.763c.694-.25 1.3.169 1.075 1.219l.001.001Z" fill="#FDF258"/></svg><svg fill="none" viewBox="0 0 32 33" id="tiktok-sq01" xmlns="http://www.w3.org/2000/svg"><path d="M28 3.167H4A1.333 1.333 0 0 0 2.667 4.5v24A1.333 1.333 0 0 0 4 29.833h24a1.333 1.333 0 0 0 1.333-1.333v-24A1.333 1.333 0 0 0 28 3.167ZM23.625 14.8a4.762 4.762 0 0 1-4.425-2.128v7.324a5.414 5.414 0 1 1-5.413-5.413c.113 0 .222.01.334.017v2.667a2.755 2.755 0 1 0-.334 5.492 2.83 2.83 0 0 0 2.88-2.727l.026-12.441h2.552a4.752 4.752 0 0 0 4.38 4.242V14.8Z" fill="#FDF258"/></svg><svg fill="none" viewBox="0 0 16 20" id="vector" xmlns="http://www.w3.org/2000/svg"><path d="M8 9.75c.483 0 .896-.17 1.238-.512.341-.342.512-.755.512-1.238s-.17-.896-.512-1.238A1.689 1.689 0 0 0 8 6.25c-.483 0-.896.17-1.238.512A1.689 1.689 0 0 0 6.25 8c0 .483.17.896.512 1.238.342.341.755.512 1.238.512ZM8 19.8c-2.6-2.267-4.542-4.367-5.825-6.3C.892 11.567.25 9.8.25 8.2c0-2.417.78-4.346 2.338-5.788C4.146.971 5.95.25 8 .25s3.854.72 5.413 2.162C14.971 3.854 15.75 5.783 15.75 8.2c0 1.6-.642 3.367-1.925 5.3C12.542 15.433 10.6 17.533 8 19.8Z" fill="#356CDD"/></svg><svg fill="none" viewBox="0 0 32 33" id="youtube01" xmlns="http://www.w3.org/2000/svg"><path d="M31.328 8.771a4.006 4.006 0 0 0-2.787-2.781c-2.495-.667-12.525-.667-12.525-.667S6.005 5.307 3.484 5.99A4.005 4.005 0 0 0 .703 8.771a41.574 41.574 0 0 0-.697 7.745 42.136 42.136 0 0 0 .697 7.708 4.022 4.022 0 0 0 2.781 2.787c2.495.667 12.532.667 12.532.667s10.005 0 12.525-.667a4.023 4.023 0 0 0 2.787-2.787c.459-2.541.683-5.125.667-7.708.016-2.6-.203-5.188-.667-7.745ZM12.812 21.303v-9.595l8.349 4.808-8.349 4.787Z" fill="#FDF258"/></svg></svg>